<svg data-v-fde0c5aa="" xmlns="http://www.w3.org/2000/svg" viewBox="0 0 300 300" class="iconLeft"><!----><defs data-v-fde0c5aa=""><!----></defs><rect data-v-fde0c5aa="" fill="transparent" x="0" y="0" width="300px" height="300px" class="logo-background-square"></rect><defs data-v-fde0c5aa=""><!----></defs><g data-v-fde0c5aa="" id="d1062907-2955-47dc-8b0d-8c9ddddd63c9" fill="#000000" transform="matrix(2.002031110988786,0,0,2.002031110988786,89.42695784007661,130.55026697393683)"><path d="M1.47 13.55L1.47 3.75L2.87 3.75L2.87 12.33L8.18 12.33L8.18 13.55L1.47 13.55ZM12.77 13.64L12.77 13.64Q11.66 13.64 10.78 13.15L10.78 13.15L10.78 13.15Q9.90 12.66 9.40 11.79L9.40 11.79L9.40 11.79Q8.90 10.93 8.90 9.84L8.90 9.84L8.90 9.84Q8.90 8.75 9.40 7.89L9.40 7.89L9.40 7.89Q9.90 7.03 10.78 6.54L10.78 6.54L10.78 6.54Q11.66 6.06 12.77 6.06L12.77 6.06L12.77 6.06Q13.87 6.06 14.75 6.54L14.75 6.54L14.75 6.54Q15.62 7.03 16.12 7.89L16.12 7.89L16.12 7.89Q16.62 8.75 16.62 9.84L16.62 9.84L16.62 9.84Q16.62 10.93 16.12 11.79L16.12 11.79L16.12 11.79Q15.62 12.66 14.75 13.15L14.75 13.15L14.75 13.15Q13.87 13.64 12.77 13.64L12.77 13.64ZM12.77 12.46L12.77 12.46Q13.48 12.46 14.05 12.13L14.05 12.13L14.05 12.13Q14.62 11.80 14.94 11.21L14.94 11.21L14.94 11.21Q15.26 10.61 15.26 9.84L15.26 9.84L15.26 9.84Q15.26 9.07 14.94 8.48L14.94 8.48L14.94 8.48Q14.62 7.88 14.05 7.56L14.05 7.56L14.05 7.56Q13.48 7.24 12.77 7.24L12.77 7.24L12.77 7.24Q12.05 7.24 11.49 7.56L11.49 7.56L11.49 7.56Q10.92 7.88 10.59 8.48L10.59 8.48L10.59 8.48Q10.26 9.07 10.26 9.84L10.26 9.84L10.26 9.84Q10.26 10.61 10.59 11.21L10.59 11.21L10.59 11.21Q10.92 11.80 11.49 12.13L11.49 12.13L11.49 12.13Q12.05 12.46 12.77 12.46L12.77 12.46ZM21.18 6.06L21.18 6.06Q22.72 6.06 23.54 6.82L23.54 6.82L23.54 6.82Q24.36 7.57 24.36 9.07L24.36 9.07L24.36 13.55L23.09 13.55L23.09 12.57L23.09 12.57Q22.75 13.09 22.13 13.36L22.13 13.36L22.13 13.36Q21.50 13.64 20.65 13.64L20.65 13.64L20.65 13.64Q19.40 13.64 18.66 13.03L18.66 13.03L18.66 13.03Q17.91 12.43 17.91 11.45L17.91 11.45L17.91 11.45Q17.91 10.47 18.62 9.88L18.62 9.88L18.62 9.88Q19.33 9.28 20.89 9.28L20.89 9.28L23.02 9.28L23.02 9.02L23.02 9.02Q23.02 8.15 22.51 7.69L22.51 7.69L22.51 7.69Q22.01 7.22 21.03 7.22L21.03 7.22L21.03 7.22Q20.37 7.22 19.74 7.44L19.74 7.44L19.74 7.44Q19.11 7.66 18.68 8.02L18.68 8.02L18.12 7.01L18.12 7.01Q18.69 6.55 19.49 6.31L19.49 6.31L19.49 6.31Q20.29 6.06 21.18 6.06L21.18 6.06ZM20.87 12.60L20.87 12.60Q21.64 12.60 22.20 12.26L22.20 12.26L22.20 12.26Q22.76 11.91 23.02 11.28L23.02 11.28L23.02 10.25L20.94 10.25L20.94 10.25Q19.24 10.25 19.24 11.40L19.24 11.40L19.24 11.40Q19.24 11.96 19.67 12.28L19.67 12.28L19.67 12.28Q20.10 12.60 20.87 12.60L20.87 12.60ZM32.51 3.16L33.85 3.16L33.85 13.55L32.56 13.55L32.56 12.38L32.56 12.38Q32.12 12.99 31.43 13.31L31.43 13.31L31.43 13.31Q30.74 13.64 29.92 13.64L29.92 13.64L29.92 13.64Q28.84 13.64 27.99 13.16L27.99 13.16L27.99 13.16Q27.13 12.68 26.65 11.82L26.65 11.82L26.65 11.82Q26.17 10.96 26.17 9.84L26.17 9.84L26.17 9.84Q26.17 8.72 26.65 7.87L26.65 7.87L26.65 7.87Q27.13 7.01 27.99 6.54L27.99 6.54L27.99 6.54Q28.84 6.06 29.92 6.06L29.92 6.06L29.92 6.06Q30.72 6.06 31.39 6.36L31.39 6.36L31.39 6.36Q32.06 6.66 32.51 7.25L32.51 7.25L32.51 3.16ZM30.03 12.46L30.03 12.46Q30.73 12.46 31.30 12.13L31.30 12.13L31.30 12.13Q31.88 11.80 32.20 11.21L32.20 11.21L32.20 11.21Q32.52 10.61 32.52 9.84L32.52 9.84L32.52 9.84Q32.52 9.07 32.20 8.48L32.20 8.48L32.20 8.48Q31.88 7.88 31.30 7.56L31.30 7.56L31.30 7.56Q30.73 7.24 30.03 7.24L30.03 7.24L30.03 7.24Q29.32 7.24 28.75 7.56L28.75 7.56L28.75 7.56Q28.18 7.88 27.85 8.48L27.85 8.48L27.85 8.48Q27.52 9.07 27.52 9.84L27.52 9.84L27.52 9.84Q27.52 10.61 27.85 11.21L27.85 11.21L27.85 11.21Q28.18 11.80 28.75 12.13L28.75 12.13L28.75 12.13Q29.32 12.46 30.03 12.46L30.03 12.46ZM43.11 9.88L43.11 9.88Q43.11 10.04 43.08 10.29L43.08 10.29L37.06 10.29L37.06 10.29Q37.18 11.27 37.92 11.87L37.92 11.87L37.92 11.87Q38.65 12.46 39.75 12.46L39.75 12.46L39.75 12.46Q41.08 12.46 41.89 11.56L41.89 11.56L42.63 12.43L42.63 12.43Q42.13 13.02 41.38 13.33L41.38 13.33L41.38 13.33Q40.63 13.64 39.70 13.64L39.70 13.64L39.70 13.64Q38.53 13.64 37.62 13.15L37.62 13.15L37.62 13.15Q36.71 12.67 36.21 11.80L36.21 11.80L36.21 11.80Q35.71 10.93 35.71 9.84L35.71 9.84L35.71 9.84Q35.71 8.76 36.20 7.90L36.20 7.90L36.20 7.90Q36.68 7.03 37.53 6.54L37.53 6.54L37.53 6.54Q38.37 6.06 39.44 6.06L39.44 6.06L39.44 6.06Q40.50 6.06 41.34 6.54L41.34 6.54L41.34 6.54Q42.17 7.03 42.64 7.90L42.64 7.90L42.64 7.90Q43.11 8.76 43.11 9.88L43.11 9.88ZM39.44 7.20L39.44 7.20Q38.47 7.20 37.82 7.78L37.82 7.78L37.82 7.78Q37.17 8.37 37.06 9.32L37.06 9.32L41.82 9.32L41.82 9.32Q41.71 8.39 41.06 7.79L41.06 7.79L41.06 7.79Q40.40 7.20 39.44 7.20L39.44 7.20ZM46.26 7.38L46.26 7.38Q46.61 6.73 47.29 6.40L47.29 6.40L47.29 6.40Q47.98 6.06 48.96 6.06L48.96 6.06L48.96 7.36L48.96 7.36Q48.85 7.35 48.65 7.35L48.65 7.35L48.65 7.35Q47.56 7.35 46.94 8.00L46.94 8.00L46.94 8.00Q46.31 8.65 46.31 9.86L46.31 9.86L46.31 13.55L44.97 13.55L44.97 6.13L46.26 6.13L46.26 7.38ZM52.84 13.64L52.84 13.64Q51.93 13.64 51.09 13.39L51.09 13.39L51.09 13.39Q50.25 13.15 49.77 12.77L49.77 12.77L50.33 11.70L50.33 11.70Q50.82 12.05 51.52 12.26L51.52 12.26L51.52 12.26Q52.22 12.47 52.93 12.47L52.93 12.47L52.93 12.47Q54.70 12.47 54.70 11.47L54.70 11.47L54.70 11.47Q54.70 11.13 54.46 10.93L54.46 10.93L54.46 10.93Q54.22 10.74 53.87 10.65L53.87 10.65L53.87 10.65Q53.51 10.56 52.85 10.44L52.85 10.44L52.85 10.44Q51.95 10.30 51.39 10.12L51.39 10.12L51.39 10.12Q50.82 9.94 50.41 9.51L50.41 9.51L50.41 9.51Q50.01 9.07 50.01 8.29L50.01 8.29L50.01 8.29Q50.01 7.28 50.85 6.67L50.85 6.67L50.85 6.67Q51.69 6.06 53.10 6.06L53.10 6.06L53.10 6.06Q53.84 6.06 54.59 6.24L54.59 6.24L54.59 6.24Q55.33 6.43 55.80 6.73L55.80 6.73L55.23 7.80L55.23 7.80Q54.32 7.21 53.09 7.21L53.09 7.21L53.09 7.21Q52.23 7.21 51.79 7.49L51.79 7.49L51.79 7.49Q51.34 7.77 51.34 8.23L51.34 8.23L51.34 8.23Q51.34 8.60 51.59 8.81L51.59 8.81L51.59 8.81Q51.84 9.02 52.21 9.11L52.21 9.11L52.21 9.11Q52.58 9.21 53.26 9.34L53.26 9.34L53.26 9.34Q54.15 9.49 54.71 9.67L54.71 9.67L54.71 9.67Q55.26 9.84 55.65 10.26L55.65 10.26L55.65 10.26Q56.04 10.68 56.04 11.44L56.04 11.44L56.04 11.44Q56.04 12.45 55.18 13.04L55.18 13.04L55.18 13.04Q54.32 13.64 52.84 13.64L52.84 13.64ZM65.24 13.55L64.16 11.10L58.95 11.10L57.88 13.55L56.43 13.55L60.87 3.75L62.26 3.75L66.71 13.55L65.24 13.55ZM59.44 9.98L63.67 9.98L61.56 5.18L59.44 9.98ZM71.90 6.06L71.90 6.06Q72.98 6.06 73.84 6.54L73.84 6.54L73.84 6.54Q74.69 7.01 75.17 7.87L75.17 7.87L75.17 7.87Q75.66 8.72 75.66 9.84L75.66 9.84L75.66 9.84Q75.66 10.96 75.17 11.82L75.17 11.82L75.17 11.82Q74.69 12.68 73.84 13.16L73.84 13.16L73.84 13.16Q72.98 13.64 71.90 13.64L71.90 13.64L71.90 13.64Q71.11 13.64 70.44 13.33L70.44 13.33L70.44 13.33Q69.78 13.02 69.31 12.43L69.31 12.43L69.31 16.27L67.97 16.27L67.97 6.13L69.26 6.13L69.26 7.31L69.26 7.31Q69.71 6.69 70.39 6.38L70.39 6.38L70.39 6.38Q71.08 6.06 71.90 6.06L71.90 6.06ZM71.79 12.46L71.79 12.46Q72.51 12.46 73.07 12.13L73.07 12.13L73.07 12.13Q73.64 11.80 73.97 11.21L73.97 11.21L73.97 11.21Q74.30 10.61 74.30 9.84L74.30 9.84L74.30 9.84Q74.30 9.07 73.97 8.48L73.97 8.48L73.97 8.48Q73.64 7.88 73.07 7.56L73.07 7.56L73.07 7.56Q72.51 7.24 71.79 7.24L71.79 7.24L71.79 7.24Q71.09 7.24 70.53 7.57L70.53 7.57L70.53 7.57Q69.96 7.90 69.63 8.48L69.63 8.48L69.63 8.48Q69.30 9.07 69.30 9.84L69.30 9.84L69.30 9.84Q69.30 10.61 69.62 11.21L69.62 11.21L69.62 11.21Q69.94 11.80 70.52 12.13L70.52 12.13L70.52 12.13Q71.09 12.46 71.79 12.46L71.79 12.46ZM81.45 6.06L81.45 6.06Q82.53 6.06 83.38 6.54L83.38 6.54L83.38 6.54Q84.24 7.01 84.72 7.87L84.72 7.87L84.72 7.87Q85.20 8.72 85.20 9.84L85.20 9.84L85.20 9.84Q85.20 10.96 84.72 11.82L84.72 11.82L84.72 11.82Q84.24 12.68 83.38 13.16L83.38 13.16L83.38 13.16Q82.53 13.64 81.45 13.64L81.45 13.64L81.45 13.64Q80.65 13.64 79.99 13.33L79.99 13.33L79.99 13.33Q79.32 13.02 78.86 12.43L78.86 12.43L78.86 16.27L77.52 16.27L77.52 6.13L78.81 6.13L78.81 7.31L78.81 7.31Q79.25 6.69 79.94 6.38L79.94 6.38L79.94 6.38Q80.63 6.06 81.45 6.06L81.45 6.06ZM81.34 12.46L81.34 12.46Q82.05 12.46 82.62 12.13L82.62 12.13L82.62 12.13Q83.19 11.80 83.52 11.21L83.52 11.21L83.52 11.21Q83.85 10.61 83.85 9.84L83.85 9.84L83.85 9.84Q83.85 9.07 83.52 8.48L83.52 8.48L83.52 8.48Q83.19 7.88 82.62 7.56L82.62 7.56L82.62 7.56Q82.05 7.24 81.34 7.24L81.34 7.24L81.34 7.24Q80.64 7.24 80.07 7.57L80.07 7.57L80.07 7.57Q79.51 7.90 79.18 8.48L79.18 8.48L79.18 8.48Q78.85 9.07 78.85 9.84L78.85 9.84L78.85 9.84Q78.85 10.61 79.17 11.21L79.17 11.21L79.17 11.21Q79.49 11.80 80.07 12.13L80.07 12.13L80.07 12.13Q80.64 12.46 81.34 12.46L81.34 12.46Z"></path></g><defs data-v-fde0c5aa=""><linearGradient data-v-fde0c5aa="" gradientTransform="rotate(25)" id="f2829e8a-cd3c-456c-a9e8-76444d53746c" x1="0%" y1="0%" x2="100%" y2="0%"><stop data-v-fde0c5aa="" offset="0%" stop-color="#EA1F59" stop-opacity="1"></stop><stop data-v-fde0c5aa="" offset="100%" stop-color="#FA9169" stop-opacity="1"></stop></linearGradient></defs><g data-v-fde0c5aa="" id="1057bce8-98ad-4d57-ae4e-f48081e0faeb" stroke="none" fill="url(#f2829e8a-cd3c-456c-a9e8-76444d53746c)" transform="matrix(1.230310738453397,0,0,1.230310738453397,40,130.31502818474564)"><path d="M15.965 16.258l.707-.707 10.39 10.39-.707.707z"></path><path d="M4.935 26.357L26.018 5.274l.707.707L5.642 27.065z"></path><path d="M31 1v4.194h-4.194V1H31m1-1h-6.194v6.194H32V0zM31 26.806V31h-4.194v-4.194H31m1-1h-6.194V32H32v-6.194zM5.194 26.806V31H1v-4.194h4.194m1-1H0V32h6.194v-6.194z"></path></g><!----></svg>